<svg width="60" height="60" viewBox="0 0 60 60" fill="none" xmlns="http://www.w3.org/2000/svg">
<g clip-path="url(#clip0_4_17)">
<path d="M15.0586 0H45.0879L45.1758 0.0585938L46.5234 0.263672L47.3438 0.439453L48.3105 0.703125L49.0723 0.966797L49.9219 1.28906L50.7715 1.69922L51.2402 1.93359L51.7676 2.22656L52.5879 2.72461L52.998 3.01758L53.6133 3.48633L53.9941 3.7793L54.3457 4.10156L54.5801 4.30664L54.9316 4.62891L55.1953 4.86328L55.4004 5.09766L55.8398 5.56641L56.0449 5.80078L56.3672 6.18164L56.7773 6.73828L57.1289 7.20703L57.4805 7.76367L57.832 8.34961L58.0957 8.81836L58.4766 9.58008L58.7402 10.166L59.0039 10.8691L59.2676 11.6016L59.5605 12.7148L59.707 13.3594L59.9121 14.6777L59.9414 14.8828L60 14.8535V45.0879L59.9121 45.0586L59.8828 45.5273L59.707 46.6113L59.5605 47.2852L59.2969 48.2812L58.9453 49.3066L58.623 50.0977L57.9785 51.416L57.4805 52.2363L57.1875 52.7051L56.8066 53.2324L56.1914 54.0234L55.9277 54.3164L55.5762 54.6973L55.3125 54.9902L54.7852 55.5176L54.5508 55.7227L54.1992 56.0449L53.877 56.3086L53.3789 56.6895L52.8223 57.0996L52.1777 57.5098L51.5332 57.8906L51.123 58.125L50.4492 58.4473L49.9512 58.6816L48.9551 59.0625L48.0469 59.3555L46.875 59.6484L45.8789 59.8242L44.6484 60H15L14.9414 59.9414L13.3887 59.707L12.7148 59.5605L11.543 59.2383L10.4004 58.8281L9.72656 58.5352L9.22852 58.3008L8.75977 58.0664L8.34961 57.832L7.5293 57.334L7.17773 57.0996L6.62109 56.6895L6.09375 56.2793L5.85938 56.0742L5.56641 55.8105L5.21484 55.4883L4.92188 55.2246L4.59961 54.9023L4.39453 54.668L4.27734 54.5508V54.4922H4.21875L4.01367 54.2578L3.75 53.9648L2.95898 52.9102L2.60742 52.3828L2.10938 51.5625L1.875 51.1523L1.55273 50.4785L1.23047 49.7754L0.761719 48.4863L0.556641 47.7832L0.322266 46.8164L0.205078 46.1426L0.0585938 45.2344H0.0292969V45.0293H0V15.0879L0.0585938 14.8535L0.234375 13.6523L0.410156 12.8027L0.732422 11.6016L1.17188 10.3711L1.49414 9.63867L1.78711 9.02344L2.05078 8.52539L2.54883 7.70508L2.87109 7.20703L3.28125 6.65039L3.75 6.03516L3.80859 5.94727H3.86719L3.92578 5.83008L4.30664 5.41992L4.33594 5.36133H4.39453L4.45312 5.24414L4.89258 4.77539L5.33203 4.36523L5.6543 4.07227L5.88867 3.86719L6.32812 3.51562L6.88477 3.10547L7.41211 2.72461L8.23242 2.22656L8.73047 1.93359L9.375 1.61133L10.1953 1.23047L11.5723 0.732422L12.7734 0.410156L13.4473 0.263672L14.5898 0.0878906L15.0293 0.0292969L15.0586 0ZM16.2305 5.33203L15.3516 5.39062L14.5312 5.50781L13.7402 5.68359L13.0371 5.88867L12.1582 6.21094L11.3086 6.62109L10.5176 7.08984L10.0488 7.41211L9.55078 7.79297L9.16992 8.11523L8.67188 8.58398L8.34961 8.90625L8.14453 9.14062L7.88086 9.43359L7.5293 9.90234L7.14844 10.4297L6.85547 10.9277L6.5918 11.3965L6.35742 11.8652L6.12305 12.4219L5.85938 13.1543L5.625 14.0039L5.47852 14.7656L5.39062 15.3809L5.33203 16.5234V43.4766L5.39062 44.5898L5.53711 45.5859L5.74219 46.4648L6.09375 47.5195L6.41602 48.252L6.70898 48.8379L7.20703 49.6582L7.61719 50.2148L7.93945 50.625L8.29102 51.0059L8.49609 51.2402L8.90625 51.6504L9.14062 51.8555L9.55078 52.207L10.1074 52.6172L10.6348 52.9688L11.2793 53.3496L11.9531 53.6719L12.5098 53.9062L13.4766 54.2285L14.1797 54.4043L15.0586 54.5508L15.9082 54.6387L16.5234 54.668H43.1836L44.0332 54.6387L44.7656 54.5801L45.8203 54.4043L46.7285 54.1699L47.6367 53.8477L48.3984 53.4961L49.0137 53.1738L49.6875 52.7637L50.2441 52.3535L50.7129 51.9727L51.0645 51.6504L51.4453 51.2988L51.8555 50.8594L52.207 50.4492L52.6172 49.8926L52.8223 49.5996L53.1445 49.0723L53.4082 48.6035L53.8184 47.7246L54.1113 46.9043L54.3164 46.2012L54.4629 45.5859L54.5801 44.7949L54.6387 43.9746V16.0254L54.5801 15.2344L54.4043 14.1504L54.1699 13.2715L53.9648 12.6562L53.7012 12.0117L53.3203 11.2207L52.8223 10.4004L52.5 9.93164L52.207 9.55078L51.9434 9.22852L51.5039 8.75977L51.3281 8.55469L51.0938 8.34961L50.6836 7.96875L50.1855 7.58789L49.6582 7.20703L48.8379 6.70898L48.0762 6.32812L47.2852 6.00586L46.582 5.77148L45.6152 5.53711L44.6191 5.39062L43.5645 5.33203H16.2305Z" fill="white"/>
<path d="M29.2969 14.5312H30.6152L31.4648 14.5898L32.5488 14.7363L33.457 14.9121L34.4238 15.1758L35.0391 15.3809L35.9766 15.7324L37.002 16.2305L37.4707 16.4648L38.6133 17.168L39.2285 17.6367L39.6973 17.9883L40.1074 18.3398L40.5469 18.75L40.7812 18.9551L41.1621 19.3359L41.3672 19.5703L41.6602 19.8926L41.9238 20.2148L42.2461 20.625L42.6562 21.1816L42.8613 21.4746L43.3008 22.207L43.5938 22.7051L44.1211 23.7891L44.4141 24.5215L44.7363 25.4297L44.9707 26.3086L45.1465 27.0996L45.3223 28.2715L45.3809 28.9453L45.4102 29.5312V30.4102L45.3516 31.4648L45.2344 32.3438L45.1172 33.0469L44.9121 33.9258L44.707 34.6582L44.4141 35.4785L44.1797 36.0645L43.7109 37.0605L43.418 37.6172L43.0078 38.291L42.7441 38.7012L42.334 39.2578L42.041 39.6387L41.8066 39.9316L41.4551 40.3125L41.4258 40.3711H41.3672L41.3086 40.4883L41.1035 40.6934L40.8984 40.9277L40.6641 41.1621L40.4297 41.3672L40.0781 41.6895L39.6973 42.0117L38.7598 42.7148L38.2617 43.0371L37.8223 43.3008L37.3242 43.5938L36.8555 43.8281L36.0059 44.2383L35.1562 44.5605L34.2773 44.8535L33.2227 45.1172L32.4023 45.2637L31.582 45.3809L30.7617 45.4395L30.2051 45.4688H29.6191L28.4766 45.4102L27.2461 45.2344L26.4844 45.0879L25.2832 44.7656L24.082 44.3262L23.3789 44.0039L22.6465 43.6523L21.8555 43.1836L21.2402 42.8027L20.7422 42.4219L20.2734 42.0703L19.8926 41.748L19.5117 41.3965L19.2773 41.1914L18.9844 40.9277L18.5449 40.459L18.2812 40.166L18.0762 39.9316L17.7246 39.4922L17.3145 38.9355L17.0215 38.5254L16.5234 37.7051L16.2305 37.1777L15.7031 36.0938L15.3809 35.2441L15.1465 34.5703L14.9121 33.7207L14.7363 32.9297L14.5605 31.7871L14.4727 30.6445V29.3262L14.5605 28.1836L14.7363 27.0703L14.8828 26.3965L15.1172 25.5176L15.3223 24.9023L15.7031 23.9062L16.2012 22.8809L16.4062 22.4707L16.6992 22.002L17.0508 21.416L17.373 20.9766L17.7246 20.5078L18.0469 20.0977L18.3105 19.8047L18.5156 19.5703L18.6328 19.4238H18.6914L18.75 19.3066L19.3359 18.7207L19.5703 18.5156L19.9219 18.1934L20.2441 17.9297L20.8594 17.4609L21.4453 17.0508L22.2656 16.5527L22.7344 16.2891L23.8184 15.7617L24.668 15.4395L25.5469 15.1465L26.6895 14.8535L27.334 14.7363L28.3594 14.5898L29.2969 14.5312ZM29.1797 19.8926L28.418 19.9805L27.7734 20.0977L26.9824 20.3027L26.0742 20.625L25.1074 21.0938L24.6094 21.3867L24.2871 21.5918L23.8184 21.9434L23.4082 22.2656L23.0273 22.6172L22.8516 22.7637L22.6465 22.998L22.4414 23.2031V23.2617H22.3828L21.8555 23.9062L21.5039 24.4043L21.0938 25.0781L20.8008 25.6348L20.5371 26.25L20.2441 27.0703L20.0098 28.0078L19.8633 28.9746L19.834 29.3848V30.6152L19.8926 31.2598L20.0391 32.1387L20.2441 32.9297L20.5078 33.6914L20.7422 34.2188L21.0352 34.834L21.3867 35.4199L21.6211 35.7715L21.9727 36.2402L22.2949 36.6211L22.6172 36.9727L22.793 37.1777L23.0273 37.3828L23.4375 37.7637L23.8184 38.0566L24.2578 38.3789L24.873 38.7598L25.5469 39.1113L26.0449 39.3457L26.8359 39.6387L27.7148 39.873L28.3594 39.9902L29.0039 40.0781L29.3555 40.1074H30.4688L31.1426 40.0488L32.0215 39.9023L32.9297 39.668L33.75 39.375L34.5703 38.9941L35.0977 38.7012L35.6543 38.3496L36.0059 38.0859L36.3867 37.793L36.7383 37.4707L36.9727 37.2656L37.3828 36.8555L37.5879 36.6211L37.6172 36.5332H37.6758L37.998 36.123L38.3789 35.5957L38.7305 35.0098L38.9355 34.6582L39.2871 33.8965L39.5215 33.2812L39.7266 32.5781L39.873 31.9922L39.9902 31.2305L40.0488 30.4395V29.6191L39.9902 28.7988L39.8438 27.8906L39.6094 27.0117L39.2871 26.1035L38.8184 25.1367L38.4961 24.5801L38.2617 24.2285L37.9102 23.7598L37.6758 23.4668L37.3828 23.1445L37.3535 23.0859H37.2949L37.2363 22.9688L36.8848 22.6172L36.6504 22.4121L36.2402 22.0605L35.7129 21.6797L35.2148 21.3574L34.5996 21.0059L33.8672 20.6543L32.9883 20.332L32.2266 20.127L31.6406 20.0098L31.0254 19.9219L30.7031 19.8926H29.1797Z" fill="white"/>
<path d="M45.791 10.0195H46.4355L46.875 10.0781L47.4902 10.2539L48.0469 10.5176L48.3691 10.7227L48.6914 10.9863L48.9844 11.25L49.3066 11.6602L49.541 12.041L49.7754 12.5391L49.9512 13.1543L50.0098 13.5352V14.3555L49.8926 14.9414L49.7461 15.3809L49.5117 15.8496L49.3066 16.2012L48.9844 16.582L48.9551 16.6406H48.8965L48.8379 16.7578L48.5449 16.9922L48.1641 17.2559L47.666 17.5195L47.1387 17.6953L46.7871 17.7832L46.2598 17.8418H45.9082L45.2344 17.7539L44.5312 17.5195L43.9453 17.1973L43.4766 16.8164L43.3301 16.6992V16.6406H43.2715L43.0078 16.3184L42.7441 15.9375L42.5098 15.498L42.2754 14.7949L42.1875 14.209V13.6816L42.2754 13.0957L42.4219 12.5684L42.6562 12.0703L42.8906 11.6895L43.125 11.3965L43.4766 11.0156L43.916 10.6641L44.4434 10.3711L44.8828 10.1953L45.3223 10.0781L45.791 10.0195Z" fill="white"/>
</g>
<defs>
<clipPath id="clip0_4_17">
<rect width="60" height="60" fill="white"/>
</clipPath>
</defs>
</svg>
