<svg width="60" height="60" viewBox="0 0 60 60" fill="none" xmlns="http://www.w3.org/2000/svg">
<path d="M1.8457 10.9277H17.5781L18.4863 10.9863L19.541 11.1621L20.3027 11.3672L21.0352 11.6309L21.5625 11.8652L22.0312 12.0996L22.5586 12.3926L22.998 12.6855L23.5547 13.0957L23.9648 13.4473L24.4043 13.8574L24.668 14.1211L24.873 14.3555L25.1953 14.7363L25.5762 15.2637L25.8691 15.7031L26.25 16.377L26.6016 17.1387L26.8945 17.959L27.0996 18.7207L27.2168 19.3066L27.3047 20.0098L27.334 20.4785V21.2988L27.2754 22.1777L27.1289 23.0273L26.9531 23.7305L26.6895 24.5215L26.4844 25.0195L26.25 25.4883L25.8984 26.1328L25.5469 26.6602L25.1953 27.1289L24.9316 27.4512L24.5215 27.8906L24.4336 28.0078H24.375L24.3164 28.125L24.082 28.3301L23.7891 28.5938L23.5547 28.7988L23.6719 28.9453L24.0234 29.209L24.4043 29.502L24.6973 29.7656L25.0488 30.0879L25.5469 30.5859L25.8105 30.9082L26.1914 31.377L26.543 31.875L27.041 32.6953L27.3633 33.3398L27.6562 34.0137L28.0078 35.0684L28.1543 35.7129L28.3008 36.5039L28.3594 37.207L28.3887 37.6465V38.4082L28.3301 39.2871L28.1836 40.1953L27.9199 41.25L27.627 42.0703L27.4219 42.5391L27.041 43.3301L26.5723 44.0918L26.2207 44.5898L25.8984 45L25.5469 45.4102L25.0781 45.9082L24.668 46.2891L24.4336 46.4941L24.0527 46.7871L23.6133 47.1094L23.0566 47.4609L22.5 47.7832L21.6504 48.1934L20.7715 48.5156L20.0391 48.7207L19.3945 48.8672L18.5742 48.9844L17.9004 49.043L17.1094 49.0723H2.10938L1.66992 49.043L1.23047 48.9258L0.908203 48.75L0.644531 48.5449L0.351562 48.2227L0.117188 47.8125L0 47.5195V12.4805L0.234375 11.9531L0.439453 11.6602L0.615234 11.4551L0.9375 11.2207L1.28906 11.0449L1.58203 10.957L1.8457 10.9277ZM4.01367 14.9414L3.98438 15.3223V26.9531H16.377L17.8125 26.9238L18.457 26.8359L19.1602 26.6602L19.7461 26.4258L20.5664 25.9863L20.918 25.7227L21.2402 25.459L21.6211 25.1367L21.8848 24.8145L22.207 24.4336L22.4414 24.0527L22.7344 23.5254L22.9395 23.0859L23.0859 22.6465L23.2324 22.0312L23.291 21.6797L23.3203 21.3574V20.5957L23.2617 20.0391L23.1152 19.3652L22.9688 18.8965L22.8223 18.5449L22.4414 17.8125L22.2363 17.4902L21.8555 17.0215L21.5332 16.6699L21.1816 16.3477L20.6836 15.9668L20.0684 15.6152L19.5996 15.3809L19.1309 15.2051L18.5742 15.0586L18.0176 14.9707L17.5781 14.9414H4.01367ZM4.01367 30.9375L3.98438 30.9961V45.0586H17.2559L17.9004 45.0293L18.5742 44.9414L19.2188 44.7949L19.9219 44.5605L20.5078 44.2969L20.9766 44.0332L21.2988 43.8281L21.7676 43.4766L22.3535 42.9492L22.7637 42.5098L23.2031 41.9238L23.6133 41.2207L23.9062 40.5762L24.1113 39.9609L24.2578 39.3457L24.3457 38.7891L24.375 38.4375V37.6758L24.3164 37.0605L24.1699 36.2695L23.9648 35.5957L23.8184 35.2148L23.584 34.7461L23.2617 34.1602L22.8809 33.6328L22.6172 33.3398L22.4121 33.1055L22.0312 32.7246L21.6211 32.4023L21.1816 32.0801L20.5664 31.7285L20.0098 31.4648L19.4238 31.2598L18.7793 31.084L18.1934 30.9961L17.168 30.9375H4.01367Z" fill="white"/>
<path d="M44.707 19.8926H46.084L46.9336 19.9512L48.1641 20.127L49.043 20.332L49.7754 20.5371L50.7715 20.8887L51.3867 21.1523L52.4121 21.6504L52.998 22.002L53.5547 22.3535L54.082 22.7344L54.4629 23.0273L54.7559 23.2617L55.1074 23.584L55.3418 23.7891L55.4297 23.8477V23.9062L55.5469 23.9648L56.0156 24.4336L56.2207 24.668L56.543 25.0195L56.8652 25.4297L57.334 26.0449L57.6855 26.5723L58.125 27.3047L58.3594 27.7148L58.8281 28.6816L59.209 29.6777L59.4434 30.4102L59.707 31.4648L59.8828 32.5195L59.9414 32.9004H60V35.0098L59.9414 35.0391L59.7949 35.3906L59.5605 35.7422L59.3555 35.9766L58.9453 36.2402L58.5938 36.3867L58.3594 36.4453L58.0957 36.4746H35.0391L35.1562 36.9141L35.3613 37.6465L35.5664 38.2617L35.9473 39.1406L36.2988 39.7852L36.6504 40.3418L37.002 40.8398L37.3828 41.3086L37.7051 41.6602L37.9688 41.9531L38.4668 42.4219L38.7891 42.6855L39.4043 43.1543L39.9316 43.4766L40.166 43.623L40.8105 43.9746L41.6309 44.3262L42.5977 44.6484L43.5352 44.8535L44.3555 44.9707L45.4102 45.0293L46.4941 44.9707L47.6074 44.7949L48.5449 44.5605L49.5117 44.209L50.2148 43.8867L50.918 43.4766L51.4453 43.1543L51.7383 42.9199L52.0898 42.6562L52.3828 42.3926L52.6172 42.1875L52.9102 41.9238L53.291 41.6309L53.6719 41.4551L54.082 41.3672H54.5508L54.9609 41.4551L55.4297 41.6895L55.752 41.9531L56.0742 42.3633L56.2207 42.6855L56.3379 43.1836V43.5645L56.2207 44.0332L55.9863 44.502L55.6641 44.8828L55.3711 45.1465L55.0195 45.4688L54.7852 45.6738L54.3457 46.0254L53.7891 46.4355L53.2617 46.7871L52.2656 47.373L51.3574 47.8125L50.5664 48.1348L49.5117 48.4863L48.5742 48.7207L47.7832 48.8672L46.9043 48.9844L46.1719 49.043H44.6777L43.6523 48.9551L42.5391 48.7793L41.8066 48.6035L40.957 48.3691L39.7559 47.9297L38.7305 47.4316L38.2324 47.168L37.4707 46.6992L37.002 46.377L36.3867 45.9082L36.123 45.7031L35.7715 45.3809L35.5371 45.1758L35.2441 44.9121L34.8047 44.4727V44.4141H34.7461L34.541 44.1797L34.2773 43.8867V43.8281H34.2188L33.8379 43.3301L33.4277 42.7734L33.1348 42.334L32.6367 41.5137L32.4023 41.0742L32.0215 40.2539L31.6699 39.3457L31.4062 38.5547L31.1133 37.3828L30.9082 36.0352L30.8496 35.2441L30.8203 34.3066L30.9082 32.9004L31.1133 31.582L31.4355 30.293L31.7578 29.3555L32.0508 28.623L32.5195 27.6562L32.8125 27.1289L33.1055 26.6602L33.4277 26.1621L33.7207 25.7812L34.1309 25.2246L34.4531 24.873L34.7461 24.5508L34.9512 24.3164L35.0977 24.1406L35.332 23.9355L35.7715 23.5254L36.0059 23.3203L36.4453 22.9688L37.002 22.5586L37.4121 22.2656L38.4375 21.6504L38.9062 21.416L39.7559 21.0059L40.6348 20.6836L41.3379 20.4492L42.3926 20.1855L43.4473 20.0098L43.8867 19.9512L44.707 19.8926ZM44.707 23.9062L43.8574 23.9941L42.9492 24.1699L42.2168 24.375L41.4844 24.6387L40.7812 24.9609L40.1074 25.3125L39.6973 25.5762L39.3457 25.8105L38.8477 26.1914L38.4668 26.5137L38.0859 26.8652L37.6172 27.334L37.4121 27.5684L37.0312 28.0371L36.7969 28.3594L36.5039 28.7988L36.2695 29.1797L36.0938 29.4727L35.7715 30.1465L35.5371 30.7031L35.2441 31.582L35.0391 32.4316V32.4609L37.0898 32.4902H53.877L55.7812 32.4609L55.752 32.168L55.5469 31.4062L55.3418 30.791L55.0488 30.0879L54.8145 29.5898L54.4336 28.916L53.9941 28.2715L53.7012 27.8906L53.4375 27.5684L53.1445 27.2461L53.1152 27.1875H53.0566L52.998 27.0703L52.7637 26.8359L52.5293 26.6309L52.2363 26.3672L51.7383 25.9863L51.2988 25.6641L50.7715 25.3418L50.127 24.9902L49.5703 24.7266L48.8965 24.4629L48.1055 24.2285L47.3145 24.0527L46.4355 23.9355L46.084 23.9062H44.707Z" fill="white"/>
<path d="M36.2988 11.9824H53.4082L53.8477 12.041L54.1992 12.1875L54.5508 12.3926L54.9023 12.7441L55.1367 13.125L55.2832 13.5352L55.3125 13.6816V14.2969L55.1953 14.707L55.0195 15.0586L54.8145 15.3223L54.5508 15.5859L54.2578 15.7617L53.9062 15.9082L53.4375 15.9961H36.3281L35.8594 15.9082L35.5078 15.7617L35.2148 15.5566L35.0391 15.4102V15.3516H34.9805L34.7168 14.9707L34.541 14.5898L34.4531 14.1797V13.8281L34.541 13.3887L34.6875 13.0371L34.9512 12.6562L35.1562 12.4512L35.4492 12.2461L35.7422 12.0996L36.0645 12.0117L36.2988 11.9824Z" fill="white"/>
</svg>
