<svg width="59" height="60" viewBox="0 0 59 60" fill="none" xmlns="http://www.w3.org/2000/svg">
<path d="M27.5391 0H31.5234V0.0292969L33.1055 0.205078L34.3359 0.380859L35.5664 0.615234L36.5918 0.849609L38.0566 1.25977L39.1699 1.64062L39.6094 1.78711L40.4297 2.10938L41.1914 2.43164L42.2168 2.90039L42.8027 3.19336L43.3594 3.48633L44.0918 3.89648L44.9121 4.39453L45.2344 4.59961L45.9082 5.03906L46.9043 5.74219L47.7246 6.38672L48.0176 6.62109L48.3984 6.94336L49.2188 7.64648L49.5117 7.93945L49.7461 8.14453L50.8008 9.19922L51.0059 9.43359L51.2109 9.63867L51.416 9.87305L52.1191 10.6934L52.4707 11.1328L53.0566 11.8945L53.4082 12.3926L53.7012 12.8027L53.9941 13.2422L54.4629 13.9746L54.7266 14.4141L55.0488 14.9707L55.4297 15.6445L56.1035 16.9922L56.5723 18.0469L57.0117 19.1895L57.4512 20.4492L57.8027 21.6504L58.125 22.9395L58.3594 24.082L58.5352 25.166L58.6816 26.3379L58.7988 27.832L58.8281 28.623V30.1172L58.7988 31.0254L58.6816 32.5195L58.4766 34.0723L58.2422 35.3613L57.8906 36.8555L57.5391 38.0859L57.1289 39.3164L56.6895 40.459L56.3379 41.2793L56.0156 42.0117L55.7812 42.4805L55.3711 43.2715L55.0781 43.7988L54.668 44.502L54.2285 45.2051L53.9062 45.7031L53.6426 46.084L53.2617 46.6406L52.6758 47.4023L52.3535 47.8125L51.9727 48.2812L51.6211 48.6914L51.3574 48.9844L51.3281 49.043H51.2695L51.2109 49.1602L51.0059 49.3652L50.8008 49.5996L50.3027 50.0977L50.1562 50.2734L49.9219 50.4785L49.5117 50.8887L49.2773 51.0938L48.8965 51.4453L48.5742 51.709L48.2227 52.0312L47.8125 52.3535L47.373 52.7051L46.9043 53.0566L46.582 53.291L46.084 53.6426L45.6445 53.9355L45.1465 54.2578L44.5312 54.6387L43.7695 55.0781L43.125 55.4297L42.2754 55.8691L41.4551 56.25L40.5762 56.6309L39.5215 57.041L38.4082 57.4219L37.3242 57.7441L36.416 57.9785L35.2441 58.2422L33.8965 58.4766L32.5488 58.6523L31.1426 58.7695L30.5566 58.7988H28.3594L27.2461 58.7402L25.8105 58.5938L24.9609 58.4766L23.7598 58.2715L22.3242 57.9492L21.3281 57.6855L20.1855 57.334L19.0723 56.9531L17.0215 56.1035L16.9043 56.0742L15.2344 56.6016L13.5938 57.1289L12.0117 57.627L11.1035 57.9199L9.375 58.4766L7.70508 59.0039L5.71289 59.6484L4.86328 59.9121L4.54102 60H3.92578L3.57422 59.9121L3.10547 59.6777L2.8418 59.4727L2.60742 59.2383L2.40234 58.916L2.25586 58.5938L2.16797 58.2715L2.13867 57.8906L2.19727 57.5098L2.31445 57.1289L2.51953 56.7773L2.72461 56.5137L2.98828 56.2793L3.39844 56.0449L4.45312 55.6934L6.44531 55.0488L8.11523 54.5215L9.93164 53.9355L11.6016 53.4082L13.418 52.8223L14.6191 52.4414L15.5566 52.1484L16.377 51.8848L16.7578 51.7969H17.4316L17.8418 51.9141L18.8086 52.3535L19.9512 52.8516L21.0938 53.2617L22.2949 53.6426L23.5254 53.9648L24.3164 54.1406L25.6055 54.375L27.0117 54.5508L27.7148 54.6094L28.9746 54.668H30.1758L31.2598 54.6094L32.1973 54.5215L33.3398 54.375L34.6289 54.1406L35.8594 53.8477L37.0605 53.4961L38.1738 53.1152L39.1992 52.7051L40.0488 52.3242L40.7812 51.9727L41.5723 51.5625L42.2754 51.1523L42.8613 50.8008L43.3594 50.4785L43.8574 50.127L44.4727 49.6582L45.0293 49.248L45.4102 48.9551L45.8203 48.6035L46.2305 48.2227L46.4648 48.0176L46.9043 47.6074L47.1973 47.3438L47.6074 46.9336L47.8125 46.6992L47.8711 46.6113H47.9297L47.9883 46.4941L48.252 46.2305L48.457 45.9961L48.7207 45.7031L49.0723 45.293L49.3652 44.8828L49.7461 44.3848L49.9805 44.0625L50.3906 43.5059L50.7129 43.0078L51.0645 42.4512L51.5332 41.6309L51.9141 40.9277L52.2949 40.166L52.6758 39.3164L53.1738 38.0566L53.5254 37.002L53.8184 36.0059L54.082 34.9512L54.3164 33.7793L54.4629 32.8125L54.5801 31.7578L54.668 30.4688V28.3008L54.5801 27.041L54.4629 26.0156L54.2871 24.873L54.0527 23.7305L53.8184 22.793L53.4668 21.6211L53.1152 20.5957L52.7051 19.5703L52.3242 18.7207L52.0312 18.1055L51.7383 17.5488L51.3867 16.9043L50.918 16.1133L50.5957 15.6152L50.3027 15.1758L49.8926 14.6191L49.4238 14.0039L49.1895 13.6816L48.8965 13.3008L48.3691 12.7148L48.0176 12.334L47.4902 11.748L47.4023 11.6602V11.6016H47.3438L47.168 11.3965L46.9336 11.1914L46.5527 10.8398L46.2598 10.5762L46.2012 10.5469V10.4883L46.084 10.4297L45.8789 10.2246L45.6445 10.0195L45.2051 9.66797L44.6484 9.25781L44.0332 8.78906L43.623 8.49609L43.1836 8.20312L42.5391 7.79297L41.7773 7.35352L41.25 7.06055L40.8105 6.82617L40.1367 6.50391L39.2285 6.09375L38.0273 5.625L37.002 5.27344L35.6543 4.89258L34.3652 4.59961L33.1641 4.39453L31.9922 4.24805L30.791 4.16016L30.1172 4.13086H28.5645L27.4805 4.18945L26.5137 4.27734L25.4297 4.42383L24.2871 4.62891L23.291 4.86328L22.4121 5.09766L21.3867 5.41992L20.3906 5.77148L19.541 6.12305L18.6914 6.50391L18.1348 6.76758L17.5781 7.06055L16.875 7.44141L16.1426 7.88086L15.4102 8.34961L14.8828 8.73047L14.502 9.02344L13.9453 9.43359L13.5645 9.72656L13.2715 9.96094L12.9785 10.2246L12.5977 10.5762L12.3633 10.7812L12.0117 11.1035L11.7188 11.3672L11.543 11.5137L11.3379 11.748L10.9277 12.1875L10.7227 12.4219L10.459 12.7148L10.1074 13.0957L9.84375 13.418L9.55078 13.7988L9.14062 14.3555L8.75977 14.8535L8.4668 15.2637L8.02734 15.9375L7.64648 16.5527L7.17773 17.373L6.65039 18.3984L6.12305 19.541L5.71289 20.5957L5.41992 21.416L5.03906 22.6758L4.7168 23.9648L4.48242 25.166L4.33594 26.1914L4.21875 27.2754L4.16016 28.125L4.13086 28.916V29.502L4.21875 31.2598L4.36523 32.4902L4.51172 33.4277L4.83398 34.9512L5.06836 35.8301L5.41992 37.0312L5.91797 38.4668L6.26953 39.3457L6.65039 40.2246L7.00195 40.9863L7.20703 41.3965L7.44141 41.9531L7.55859 42.3926V42.9199L7.44141 43.3887L7.23633 43.7988L6.97266 44.1211L6.65039 44.3848L6.24023 44.5898L5.80078 44.707L5.47852 44.7363L5.03906 44.6777L4.6875 44.5605L4.36523 44.3848L3.98438 44.0625L3.69141 43.6523L3.22266 42.6855L2.8418 41.8652L2.57812 41.2793L2.22656 40.4004L1.8457 39.375L1.37695 37.998L0.966797 36.5332L0.761719 35.7129L0.410156 34.043L0.146484 32.168L0.0878906 31.6113L0 30V28.2422L0.0878906 26.8652L0.205078 25.7812L0.380859 24.5508L0.615234 23.3203L0.908203 22.0605L1.31836 20.625L1.66992 19.5703L1.99219 18.6914L2.34375 17.8418L2.8125 16.8164L3.07617 16.2598L3.66211 15.1465L3.95508 14.6484L4.33594 14.0039L4.6582 13.5059L5.24414 12.627L5.625 12.0996L5.91797 11.6895L6.29883 11.2207L6.5918 10.8398L6.91406 10.459L7.61719 9.63867L7.85156 9.4043L8.05664 9.16992L8.4082 8.81836L8.4375 8.75977H8.49609L8.55469 8.64258L8.78906 8.4082L9.02344 8.20312L9.31641 7.91016H9.375V7.85156L9.60938 7.64648L9.99023 7.29492L10.3125 7.03125L10.6055 6.76758L11.0156 6.44531L11.4844 6.06445L12.041 5.6543L13.0371 4.95117L13.5352 4.62891L14.1797 4.21875L14.9414 3.7793L15.4688 3.48633L16.2598 3.07617L16.7285 2.8418L17.2852 2.57812L18.2227 2.16797L19.1309 1.81641L20.2148 1.43555L21.3574 1.08398L22.4707 0.791016L23.6719 0.527344L24.8438 0.322266L26.1328 0.146484L27.5391 0Z" fill="white"/>
<path d="M20.0684 15.4102L20.8594 15.4395L21.4453 15.5566L21.9141 15.7324L22.4707 16.0254L22.8516 16.2891L23.2031 16.5527L23.5254 16.8164L23.7305 17.0215L23.9648 17.2266L24.6387 17.9004L24.9023 18.2227L25.2539 18.6035L25.5176 18.9258L25.752 19.1895L26.1035 19.6582L26.3965 20.0391L26.6016 20.332L27.1875 21.2109L27.4805 21.7383L27.832 22.4121L28.0078 22.8516L28.1543 23.4668L28.1836 23.7305V24.375L28.0664 25.0488L27.8613 25.6055L27.5684 26.1621L27.2168 26.6309L26.8652 27.0117L26.543 27.3047L26.1328 27.627L25.8105 27.832L25.459 27.9785L25.0488 28.0664H24.6387L24.2285 27.9785L23.7305 27.7441L23.3496 27.4219L23.0859 27.0703L22.9102 26.6895L22.793 26.1914V25.8398L22.8809 25.4004L23.0859 24.9316L23.3203 24.6387L23.7012 24.2578L23.9941 24.0234L23.9355 23.8477L23.7012 23.4082L23.4082 22.9688L22.998 22.4121L22.5879 21.8848L22.2656 21.4746L21.9727 21.1523L21.7676 20.918L21.4453 20.5664V20.5078H21.3867L21.1816 20.2734L20.8594 19.9512L20.4492 19.6289L20.332 19.5703L20.127 19.5996L19.5996 19.834L19.1309 20.127L18.8086 20.3906L18.5156 20.6836L18.2227 21.1816L18.1055 21.5918L18.0469 22.0312L18.0762 22.5L18.2227 23.0859L18.4863 23.7305L19.1602 25.0781L19.4531 25.6055L19.9219 26.4258L20.332 27.0996L20.7422 27.7441L21.0352 28.1836L21.5039 28.8574L21.8848 29.3848L22.2949 29.9121L22.5879 30.293L22.8516 30.6152L23.5547 31.4355L24.082 32.0215L24.375 32.3145L24.5801 32.5488L25.2539 33.2227L25.4883 33.4277L25.8398 33.7793L26.1621 34.043L26.4551 34.3066L26.7773 34.5703L27.2754 34.9805L27.7441 35.332L28.3594 35.8008L29.0625 36.2695L29.3555 36.4746L29.8535 36.7969L30.6738 37.2949L31.1719 37.5879L31.9336 37.998L32.5781 38.3496L33.4277 38.7598L34.1309 39.082L34.8926 39.4043L35.6836 39.7266L36.5625 40.0488L37.1484 40.2539L37.6172 40.3711L37.8516 40.4004H38.6426L39.0527 40.2832L39.4043 40.1367L39.7559 39.873L39.9316 39.7266L40.2246 39.3457L40.5176 38.7891L40.6934 38.3203L40.7812 37.998L40.752 37.8223L40.4004 37.4414L39.9316 37.0605L38.877 36.2988L38.4375 36.0059L37.2656 35.3027L36.7969 35.0391L36.2695 34.8047L35.918 34.6875L35.8594 34.834L35.5078 35.332L35.2148 35.6543L34.8047 35.918L34.4238 36.0645L34.1016 36.123H33.5742L33.1348 36.0059L32.7832 35.8301L32.4902 35.5957L32.2559 35.3613L32.0508 35.0391L31.9043 34.6875L31.8164 34.3359V33.8379L31.9336 33.3691L32.168 32.9004L32.4023 32.5488L32.6367 32.2266L32.9004 31.9043L33.3398 31.4648L33.7793 31.1426L34.3066 30.8496L34.7168 30.7031L34.9805 30.6152L35.332 30.5566L35.6543 30.5273H36.1816L36.7383 30.6152L37.3242 30.791L38.3203 31.2012L38.7891 31.4355L39.5801 31.8457L40.2539 32.2559L40.8105 32.6074L41.3965 33.0176L41.8652 33.3398L42.334 33.6914L42.5977 33.9258L42.9199 34.1895L43.3301 34.541L43.7695 35.0098L44.0332 35.3027L44.3262 35.7422L44.5898 36.2109L44.7656 36.709L44.8828 37.2363L44.9121 37.4707V38.3496L44.8242 38.9062L44.6484 39.5801L44.4141 40.2246L44.0918 40.9277L43.7988 41.4551L43.5645 41.8066L43.3008 42.1582L42.9492 42.5684L42.5098 43.0078L42.0996 43.3301L41.6602 43.623L41.1914 43.8867L40.6934 44.1211L39.9902 44.3555L39.2871 44.502L38.8184 44.5605L38.2031 44.5898L36.9434 44.4727L35.7422 44.1504L35.2148 43.9746L33.8086 43.4473L32.7832 43.0078L32.0508 42.6855L31.084 42.2168L30.4102 41.8945L29.7656 41.543L28.916 41.0742L28.0957 40.5762L27.334 40.1074L26.9238 39.8145L26.2207 39.3457L25.8105 39.0527L25.1953 38.584L24.8438 38.3203L24.4629 38.0273L24.1699 37.7637L23.7598 37.4414L23.4668 37.1777L23.1445 36.9141L22.9395 36.709L22.7051 36.5039L22.0898 35.8887L21.9727 35.8008V35.7422L21.8555 35.6836V35.625L21.7383 35.5664L21.5332 35.332L21.123 34.9219L20.918 34.6875L20.6836 34.4531L20.4199 34.1309L20.332 34.043V33.9844H20.2734L20.0098 33.6621L19.6582 33.252L19.2773 32.7832L18.8965 32.2852L18.4863 31.7578L18.1348 31.2598L17.8418 30.8496L17.4609 30.293L17.168 29.8535L16.6992 29.0918L16.3184 28.4766L15.8789 27.6855L15.498 27.0117L14.6191 25.2539L14.3262 24.5215L14.1211 23.877L13.9453 23.0273L13.8867 22.5V21.6797L13.9746 20.9473L14.1211 20.3027L14.3262 19.7168L14.5898 19.1309L14.9414 18.5449L15.293 18.0762L15.5273 17.7832H15.5859L15.6445 17.666L15.9961 17.3145L16.3184 17.0508L16.6992 16.7578L17.1387 16.4648L17.7539 16.1133L18.3105 15.8496L18.8672 15.6445L19.3945 15.498L20.0684 15.4102Z" fill="white"/>
</svg>
